<?xml version="1.0" encoding="utf-8"?>
<!-- Generator: Adobe Illustrator 22.0.1, SVG Export Plug-In . SVG Version: 6.00 Build 0)  -->
<svg version="1.1" id="Layer_1" xmlns="http://www.w3.org/2000/svg" xmlns:xlink="http://www.w3.org/1999/xlink" x="0px" y="0px"
	 viewBox="0 0 182 130" style="enable-background:new 0 0 182 130;" xml:space="preserve">
<style type="text/css">
	.st0{fill:#CCCCCC;}
</style>
<g>
	<path class="st0" d="M63.7,37c18.3-12.3,35.8-24.1,54-36.4c0,7.4,0,14.3,0,21.3c5.4,1.1,10.3,1.9,15.1,3.1
		c11.9,2.9,23.1,7.4,32.6,15.4c9.6,8.1,14.8,18.4,15.4,32.1c-16.1-22.2-39-22.6-62.6-22.7c0,7.7,0,15.1,0,23.8
		C99.7,61.2,82.2,49.4,63.7,37z"/>
	<path class="st0" d="M1.1,57.6C17.2,79.6,40,80,63.7,80.1c0-7.8,0-15.2,0-23.7c18.5,12.4,36,24.3,54.4,36.6
		C99.9,105.2,82.3,117,64,129.4c0-7.6,0-14.5,0-21.3c-6.6-1.5-12.6-2.6-18.5-4.2c-10.6-2.8-20.4-7.2-28.9-14.2
		C6.8,81.6,1.3,70.5,1.1,57.6z"/>
</g>
</svg>
