<?xml version="1.0" encoding="utf-8"?>
<!-- Generator: Adobe Illustrator 22.0.1, SVG Export Plug-In . SVG Version: 6.00 Build 0)  -->
<svg version="1.1" id="Layer_1" xmlns="http://www.w3.org/2000/svg" xmlns:xlink="http://www.w3.org/1999/xlink" x="0px" y="0px"
	 viewBox="0 0 100 94.3" style="enable-background:new 0 0 100 94.3;" xml:space="preserve">
<style type="text/css">
	.st0{fill:none;stroke:#FFFFFF;stroke-width:8;stroke-linecap:round;stroke-miterlimit:10;}
	.st1{fill:#FFFFFF;}
</style>
<path class="st0" d="M52.7,90.5h-1.8H4.8c-0.9,0-1.6-0.7-1.6-1.6v-83c0-0.9,0.7-1.6,1.6-1.6h67c0.9,0,1.6,0.7,1.6,1.6v37.3"/>
<g>
	<polygon class="st1" points="56.9,15.6 17.8,15.6 17.8,23.6 56.9,23.6 56.9,15.6 	"/>
</g>
<g>
	<polygon class="st1" points="55.7,32 16.6,32 16.6,40 55.7,40 55.7,32 	"/>
</g>
<g>
	<polygon class="st1" points="31.2,48.3 17.8,48.3 17.8,56.3 31.2,56.3 31.2,48.3 	"/>
</g>
<g>
	<polygon class="st1" points="30.4,64.7 17.8,64.7 17.8,72.7 30.4,72.7 30.4,64.7 	"/>
</g>
<g>
	<path class="st1" d="M81.9,73.7c-0.2,0-0.3,0.1-0.4,0.2l-4.2,5.6c-0.2,0.2-0.1,0.5,0.1,0.7l17.2,13c0.1,0.1,0.2,0.1,0.3,0.1
		c0.2,0,0.3-0.1,0.4-0.2l4.2-5.6c0.2-0.2,0.1-0.5-0.1-0.7l-17.2-13C82.1,73.8,82,73.7,81.9,73.7L81.9,73.7z"/>
</g>
<g>
	<polygon class="st1" points="69.3,65.6 33.3,65.6 36.1,75.6 69.3,75.6 69.3,65.6 	"/>
</g>
<g>
	<polygon class="st1" points="69.3,48.9 37.8,48.9 33.8,58.9 69.3,58.9 69.3,48.9 	"/>
</g>
<circle class="st0" cx="56.9" cy="64.5" r="26.1"/>
</svg>
