<?xml version="1.0" encoding="utf-8"?>
<!-- Generator: Adobe Illustrator 22.0.1, SVG Export Plug-In . SVG Version: 6.00 Build 0)  -->
<svg version="1.1" id="Layer_1" xmlns="http://www.w3.org/2000/svg" xmlns:xlink="http://www.w3.org/1999/xlink" x="0px" y="0px"
	 viewBox="0 0 100 100" style="enable-background:new 0 0 100 100;" xml:space="preserve">
<style type="text/css">
	.st0{fill:#FFFFFF;}
</style>
<path class="st0" d="M77.7,69.9L75.7,68c-0.9-0.9-2.4-0.9-3.3,0L53.7,86.7V2.8c0-1.3-1.1-2.4-2.4-2.4h-2.6c-1.3,0-2.4,1.1-2.4,2.4
	v84L27.6,68c-0.9-0.9-2.4-0.9-3.3,0l-1.9,1.9c-0.9,0.9-0.9,2.4,0,3.3l25.1,25.1c1.7,1.7,3.5,1.7,5.2,0l25.1-25.1
	C78.6,72.3,78.6,70.8,77.7,69.9z"/>
</svg>
