<?xml version="1.0" encoding="utf-8"?>
<!-- Generator: Adobe Illustrator 22.0.1, SVG Export Plug-In . SVG Version: 6.00 Build 0)  -->
<svg version="1.1" id="Layer_1" xmlns="http://www.w3.org/2000/svg" xmlns:xlink="http://www.w3.org/1999/xlink" x="0px" y="0px"
	 viewBox="0 0 421 421" style="enable-background:new 0 0 421 421;" xml:space="preserve">
<style type="text/css">
	.st0{fill:#4F4F4F;}
</style>
<g>
	<path class="st0" d="M210.8,10c43.4,0.3,82.7,13,117.8,38.5c4.6,3.3,6.1,6.8,3.3,11.6c-2.4,4.1-5.9,7.8-9.7,10.7
		c-4.4,3.5-9.1,2.2-13.6-1c-18.6-13.1-39.1-22-61.2-27c-91.1-20.5-183.6,38-204.1,129.1c-21.4,95.4,38.6,187.9,134.4,207.1
		c93.3,18.7,186-44.9,201.7-138.7c8.5-51.2-3.6-97.2-35.6-137.9c-4.2-5.4-4.6-9-0.7-14.6c1.9-2.7,4.3-5.1,7-7
		c6.3-4.3,10.6-3.6,15.3,2.3c36.2,45.2,51.2,96.6,43.7,154C398,321.7,334,390.1,250.8,407c-105,21.3-208.4-43.6-234.6-147.2
		C-11,152.4,54,43.1,161.3,16C177.6,11.9,194.1,9.9,210.8,10z"/>
	<path class="st0" d="M211.4,86.7c6.8,0,13.6-0.1,20.4,0c9.3,0.2,13.9,4.6,13.3,13.9c-0.7,11.8-2.5,23.6-3.7,35.4
		c-2.8,27.7-5.5,55.4-8.3,83.1c-0.8,8.1-1.3,16.2-2.7,24.2c-1.7,10-7.5,14.7-17.7,15.1c-2.7,0.1-5.5,0.1-8.2-0.3
		c-8.8-1.3-13.8-7.3-14.8-18.2c-2.1-20.8-3.9-41.6-6-62.3c-2.4-23.2-4.9-46.4-7.4-69.6c-0.2-1.9-0.4-3.8-0.5-5.6
		c-0.3-11.3,2.6-14.7,13.9-15.3c7.2-0.4,14.5-0.1,21.7-0.1C211.4,86.9,211.4,86.8,211.4,86.7z"/>
	<path class="st0" d="M210.2,334.2c-14.7,0-27.4-13.2-27.4-28.6c-0.1-14,14.2-27.2,29.2-27.1c13.7,0.1,26.4,13.5,26.4,27.8
		C238.4,321.1,225.1,334.2,210.2,334.2z"/>
</g>
</svg>
